<svg height="511pt" viewBox="-71 1 511 511.999" width="511pt" xmlns="http://www.w3.org/2000/svg"><path d="m201.746094 437.539062c-12.664063 0-22.96875 10.304688-22.96875 22.972657s10.304687 22.972656 22.96875 22.972656c12.667968 0 22.972656-10.304687 22.972656-22.972656s-10.304688-22.972657-22.972656-22.972657zm0 30.945313c-4.394532 0-7.96875-3.578125-7.96875-7.972656 0-4.398438 3.574218-7.972657 7.96875-7.972657 4.398437 0 7.972656 3.574219 7.972656 7.972657 0 4.394531-3.574219 7.972656-7.972656 7.972656zm0 0"/><path d="m338.71875 191.054688c-9.730469 0-18.445312 4.398437-24.28125 11.308593-2.933594-3.476562-6.597656-6.3125-10.753906-8.277343.039062-.703126.0625-55.75.0625-55.75v-.070313c0-21.335937-17.359375-38.695313-38.699219-38.695313h-16.96875c-4.140625 0-7.5 3.355469-7.5 7.5 0 4.144532 3.359375 7.5 7.5 7.5h16.96875c13.066406 0 23.699219 10.628907 23.699219 23.695313v22.441406c0 13.066407-10.632813 23.695313-23.699219 23.695313h-40.230469v-21.085938c0-17.523437-14.257812-31.78125-31.78125-31.78125-17.523437 0-31.777344 14.257813-31.777344 31.78125v21.085938h-30.171874c-13.066407 0-23.699219-10.628906-23.699219-23.695313v-22.441406c0-13.066406 10.632812-23.695313 23.699219-23.695313h83.800781c4.140625 0 7.5-3.355468 7.5-7.5 0-4.144531-3.359375-7.5-7.5-7.5h-83.800781c-21.335938 0-38.699219 17.359376-38.699219 38.695313v53.707031c0 21.335938 17.359375 38.695313 38.699219 38.695313h30.171874v47.175781l-24.230468 20.878906c-15.109375 13.015625-20.085938 33.941406-12.386719 52.066406 8.441406 19.867188 22.304687 33.664063 40.246094 40.136719 2.53125 7.375 6.347656 14.257813 11.292969 20.355469-17.675782 5.871094-30.464844 22.546875-30.464844 42.167969v14.121093c0 24.496094 19.933594 44.429688 44.429687 44.429688h135.925781c24.496094 0 44.425782-19.933594 44.425782-44.429688v-244.734374c0-17.523438-14.253906-31.78125-31.777344-31.78125zm0 15c9.25 0 16.777344 7.527343 16.777344 16.78125v50.4375h-33.558594v-50.4375c0-9.253907 7.527344-16.78125 16.78125-16.78125zm-31.78125 67.214843h-33.5625v-50.433593c0-9.253907 7.527344-16.78125 16.78125-16.78125 9.25 0 16.777344 7.527343 16.777344 16.78125v50.433593zm-82.121094-50.433593c0-9.253907 7.527344-16.78125 16.78125-16.78125 9.25 0 16.777344 7.527343 16.777344 16.78125v50.4375h-33.558594zm-31.78125-76.300782c9.253906 0 16.78125 7.527344 16.78125 16.78125v109.953125h-33.5625v-109.953125c0-9.253906 7.527344-16.78125 16.78125-16.78125zm-61.953125 69.132813c-23.226562 0-23.695312-24.402344-23.695312-24.402344 6.554687 5.09375 14.773437 8.136719 23.695312 8.136719h30.171875v16.265625zm7.363281 129.257812c-5.140624-12.097656-1.773437-26.097656 8.371094-34.839843l14.4375-12.441407s.039063 73.886719.101563 75.097657c-9.855469-5.871094-17.539063-15.175782-22.910157-27.816407zm217.050782 64.097657h-16.777344c-4.144531 0-7.5 3.355468-7.5 7.5 0 4.140624 3.355469 7.5 7.5 7.5h16.777344v43.546874c0 16.230469-13.199219 29.429688-29.425782 29.429688h-135.925781c-16.230469 0-29.429687-13.199219-29.429687-29.429688v-14.117187c0-16.230469 13.203125-29.429687 29.429687-29.429687h116.945313c4.140625 0 7.5-3.359376 7.5-7.5 0-4.144532-3.359375-7.5-7.5-7.5h-112.183594c-11.855469-9.945313-18.652344-24.433594-18.652344-39.933594v-80.820313h179.246094v120.753907zm0 0"/><path d="m96.167969 95.667969c14.929687-14.929688 4.914062-31.902344 0-36.820313l-28.167969-28.164062c-4.917969-4.917969-22.378906-14.4375-36.820312 0-14.4375 14.4375-4.914063 31.902344 0 36.820312l28.167968 28.164063c4.917969 4.917969 21.886719 14.929687 36.820313 0zm-10.609375-10.605469c-6.347656 6.351562-13.519532 2.082031-15.605469 0l-28.164063-28.167969c-2.085937-2.082031-6.625-8.980469 0-15.605469s13.519532-2.082031 15.605469 0l28.164063 28.167969c2.085937 2.082031 6.351562 9.253907 0 15.605469zm0 0"/><path d="m42.292969 99.570312h-15.757813c-14.355468 0-26.035156 11.679688-26.035156 26.035157s11.679688 26.035156 26.035156 26.035156h15.757813c14.355469 0 26.035156-11.679687 26.035156-26.035156s-11.679687-26.035157-26.035156-26.035157zm11.035156 26.035157c0 6.085937-4.949219 11.035156-11.035156 11.035156h-15.757813c-6.085937 0-11.035156-4.953125-11.035156-11.035156 0-6.085938 4.949219-11.035157 11.035156-11.035157h15.757813c6.085937 0 11.035156 4.949219 11.035156 11.035157zm0 0"/><path d="m126.101562 67.828125c14.359376 0 26.039063-11.679687 26.039063-26.035156v-15.757813c0-14.355468-11.679687-26.035156-26.039063-26.035156-14.355468 0-26.03125 11.679688-26.03125 26.035156v15.757813c0 14.355469 11.679688 26.035156 26.03125 26.035156zm-11.03125-41.792969c0-6.085937 4.949219-11.035156 11.035157-11.035156 6.085937 0 11.035156 4.949219 11.035156 11.035156v15.757813c0 6.085937-4.949219 11.035156-11.035156 11.035156-6.085938 0-11.035157-4.949219-11.035157-11.035156zm0 0"/></svg>